<mxfile host="app.diagrams.net" modified="2024-04-17T09:28:01.343Z" agent="Mozilla/5.0 (Windows NT 10.0; Win64; x64) AppleWebKit/537.36 (KHTML, like Gecko) Chrome/115.0.0.0 Safari/537.36" etag="XgtSi-l7DtCG9ZV4So7C" version="24.2.3" type="github">
  <diagram name="第 1 页" id="IO3F4e13UR2o9mx5aqeX">
    <mxGraphModel dx="1674" dy="758" grid="1" gridSize="10" guides="1" tooltips="1" connect="1" arrows="1" fold="1" page="1" pageScale="1" pageWidth="827" pageHeight="1169" math="0" shadow="0">
      <root>
        <mxCell id="0" />
        <mxCell id="1" parent="0" />
        <mxCell id="ALwwELVYKoOx6LUuYla_-1" value="页面展示" style="rounded=0;whiteSpace=wrap;html=1;" vertex="1" parent="1">
          <mxGeometry x="50" y="220" width="120" height="60" as="geometry" />
        </mxCell>
        <mxCell id="ALwwELVYKoOx6LUuYla_-3" style="edgeStyle=orthogonalEdgeStyle;rounded=0;orthogonalLoop=1;jettySize=auto;html=1;" edge="1" parent="1" source="ALwwELVYKoOx6LUuYla_-2">
          <mxGeometry relative="1" as="geometry">
            <mxPoint x="250" y="350" as="targetPoint" />
          </mxGeometry>
        </mxCell>
        <mxCell id="ALwwELVYKoOx6LUuYla_-2" value="菜单管理" style="rounded=0;whiteSpace=wrap;html=1;" vertex="1" parent="1">
          <mxGeometry x="50" y="320" width="120" height="60" as="geometry" />
        </mxCell>
        <mxCell id="ALwwELVYKoOx6LUuYla_-6" value="" style="edgeStyle=orthogonalEdgeStyle;rounded=0;orthogonalLoop=1;jettySize=auto;html=1;" edge="1" parent="1" source="ALwwELVYKoOx6LUuYla_-4" target="ALwwELVYKoOx6LUuYla_-5">
          <mxGeometry relative="1" as="geometry" />
        </mxCell>
        <mxCell id="ALwwELVYKoOx6LUuYla_-4" value="流程模型" style="rounded=0;whiteSpace=wrap;html=1;" vertex="1" parent="1">
          <mxGeometry x="250" y="320" width="120" height="60" as="geometry" />
        </mxCell>
        <mxCell id="ALwwELVYKoOx6LUuYla_-8" value="" style="edgeStyle=orthogonalEdgeStyle;rounded=0;orthogonalLoop=1;jettySize=auto;html=1;" edge="1" parent="1" source="ALwwELVYKoOx6LUuYla_-5" target="ALwwELVYKoOx6LUuYla_-7">
          <mxGeometry relative="1" as="geometry" />
        </mxCell>
        <mxCell id="ALwwELVYKoOx6LUuYla_-5" value="流程设计" style="rounded=0;whiteSpace=wrap;html=1;" vertex="1" parent="1">
          <mxGeometry x="450" y="320" width="120" height="60" as="geometry" />
        </mxCell>
        <mxCell id="ALwwELVYKoOx6LUuYla_-10" value="" style="edgeStyle=orthogonalEdgeStyle;rounded=0;orthogonalLoop=1;jettySize=auto;html=1;" edge="1" parent="1" source="ALwwELVYKoOx6LUuYla_-7" target="ALwwELVYKoOx6LUuYla_-9">
          <mxGeometry relative="1" as="geometry" />
        </mxCell>
        <mxCell id="ALwwELVYKoOx6LUuYla_-7" value="bpmn设计" style="rounded=0;whiteSpace=wrap;html=1;" vertex="1" parent="1">
          <mxGeometry x="450" y="460" width="120" height="60" as="geometry" />
        </mxCell>
        <mxCell id="ALwwELVYKoOx6LUuYla_-12" value="" style="edgeStyle=orthogonalEdgeStyle;rounded=0;orthogonalLoop=1;jettySize=auto;html=1;" edge="1" parent="1" source="ALwwELVYKoOx6LUuYla_-9" target="ALwwELVYKoOx6LUuYla_-11">
          <mxGeometry relative="1" as="geometry" />
        </mxCell>
        <mxCell id="ALwwELVYKoOx6LUuYla_-9" value="流程属性" style="rounded=0;whiteSpace=wrap;html=1;" vertex="1" parent="1">
          <mxGeometry x="650" y="460" width="120" height="60" as="geometry" />
        </mxCell>
        <mxCell id="ALwwELVYKoOx6LUuYla_-11" value="常规 表单 审批人 审批模式" style="rounded=0;whiteSpace=wrap;html=1;" vertex="1" parent="1">
          <mxGeometry x="850" y="460" width="120" height="60" as="geometry" />
        </mxCell>
      </root>
    </mxGraphModel>
  </diagram>
</mxfile>
